<svg xmlns="http://www.w3.org/2000/svg" version="1.1" xmlns:xlink="http://www.w3.org/1999/xlink" width="20" height="20"><svg viewBox="0 0 20 20" fill="none" xmlns="http://www.w3.org/2000/svg" class="">
<path d="M9.09008 8.58393C9.59857 9.09971 10.4308 9.09971 10.9393 8.58393L14.8489 4.61827C15.3562 4.11093 15.6413 3.42283 15.6413 2.70534C15.6413 1.98786 15.3562 1.29976 14.8489 0.79242C14.3416 0.285081 13.6535 6.10352e-05 12.936 6.10352e-05C12.2185 6.10352e-05 11.5304 0.285081 11.0231 0.79242L10.8995 0.907454C10.401 1.37177 9.62834 1.37177 9.12979 0.907454L9.00627 0.79242C8.49893 0.285081 7.81083 6.10352e-05 7.09334 6.10352e-05C6.37586 6.10352e-05 5.68776 0.285081 5.18042 0.79242C4.67308 1.29976 4.38806 1.98786 4.38806 2.70534C4.38806 3.42283 4.67308 4.11093 5.18042 4.61827L9.09008 8.58393Z" fill="currentColor"></path>
<path d="M11.4161 8.96379C10.9004 9.47229 10.9004 10.3045 11.4161 10.813L15.3818 14.7226C15.8891 15.23 16.5772 15.515 17.2947 15.515C18.0122 15.515 18.7003 15.23 19.2076 14.7226C19.715 14.2153 20 13.5272 20 12.8097C20 12.0922 19.715 11.4041 19.2076 10.8968L19.0926 10.7733C18.6283 10.2747 18.6283 9.50206 19.0926 9.0035L19.2076 8.87999C19.715 8.37265 20 7.68455 20 6.96706C20 6.24958 19.715 5.56148 19.2076 5.05414C18.7003 4.5468 18.0122 4.26178 17.2947 4.26178C16.5772 4.26178 15.8891 4.5468 15.3818 5.05414L11.4161 8.96379Z" fill="currentColor"></path>
<path d="M10.9099 11.1935C10.4014 10.6778 9.56924 10.6778 9.06075 11.1935L5.15109 15.1592C4.64375 15.6665 4.35873 16.3546 4.35873 17.0721C4.35873 17.7896 4.64375 18.4777 5.15109 18.985C5.65843 19.4924 6.34653 19.7774 7.06401 19.7774C7.7815 19.7774 8.4696 19.4924 8.97694 18.985L9.10045 18.87C9.59901 18.4057 10.3717 18.4057 10.8702 18.87L10.9937 18.985C11.5011 19.4924 12.1892 19.7774 12.9067 19.7774C13.6241 19.7774 14.3122 19.4924 14.8196 18.985C15.3269 18.4777 15.6119 17.7896 15.6119 17.0721C15.6119 16.3546 15.3269 15.6665 14.8196 15.1592L10.9099 11.1935Z" fill="currentColor"></path>
<path d="M8.58387 10.8137C9.09965 10.3052 9.09965 9.47299 8.58387 8.9645L4.61821 5.05484C4.11087 4.5475 3.42277 4.26248 2.70528 4.26248C1.9878 4.26248 1.2997 4.5475 0.79236 5.05484C0.285021 5.56218 1.21501e-06 6.25028 1.12093e-06 6.96776C1.02684e-06 7.68525 0.285021 8.37335 0.79236 8.88069L0.907394 9.0042C1.37171 9.50276 1.37171 10.2754 0.907394 10.774L0.79236 10.8975C0.285021 11.4048 4.48842e-07 12.0929 3.54755e-07 12.8104C2.60668e-07 13.5279 0.28502 14.216 0.792359 14.7233C1.2997 15.2307 1.9878 15.5157 2.70528 15.5157C3.42277 15.5157 4.11087 15.2307 4.61821 14.7233L8.58387 10.8137Z" fill="currentColor"></path>
</svg><style>@media (prefers-color-scheme: light) { :root { filter: none; } }
</style></svg>